<svg xmlns="http://www.w3.org/2000/svg" width="128" height="128" viewBox="0 0 128 128" fill="none">
  <title>Efficient Manufacturing</title>
  <g stroke="#8DFF00" stroke-width="4" stroke-linecap="round" stroke-linejoin="round">
    <path d="M64 14C78 26 86 39 86 54C86 68 76 80 64 86C52 80 42 68 42 54C42 39 50 26 64 14Z"/>
    <path d="M64 30V56"/>
    <path d="M54 44H74"/>
    <path d="M64 56L54 70"/>
    <path d="M64 56L76 70"/>
    <path d="M34 84H94"/>
    <path d="M42 84L34 104"/>
    <path d="M86 84L94 104"/>
    <path d="M42 104H86"/>
    <path d="M28 92H42"/>
    <path d="M86 92H100"/>
    <path d="M48 76C54 81 59 84 64 86"/>
    <path d="M80 76C74 81 69 84 64 86"/>
  </g>
</svg>